<svg width="71" height="71" viewBox="0 0 71 71" fill="none" xmlns="http://www.w3.org/2000/svg">
<rect x="18.4111" y="14" width="38" height="39" fill="white"/>
<path d="M35.5 1.4043C16.8841 1.4043 1.7933 16.4951 1.7933 35.111C1.7933 53.7269 16.8841 68.8176 35.5 68.8176C54.1159 68.8176 69.2066 53.7269 69.2066 35.111C69.2066 16.4951 54.1159 1.4043 35.5 1.4043ZM43.4842 24.697H38.4177C37.8173 24.697 37.1502 25.487 37.1502 26.5368V30.1954H43.4878L42.5292 35.4129H37.1502V51.076H31.1708V35.4129H25.7461V30.1954H31.1708V27.1267C31.1708 22.7238 34.2254 19.1459 38.4177 19.1459H43.4842V24.697Z" fill="#002433"/>
</svg>
