<svg width="71" height="71" viewBox="0 0 71 71" fill="none" xmlns="http://www.w3.org/2000/svg">
<circle cx="35.8889" cy="35.1111" r="35.1111" fill="#002433"/>
<path d="M35.8888 35.1112L14.8427 23.2704V20.4816C14.8427 19.6587 15.103 18.9653 15.6237 18.4014C16.1444 17.8376 16.7609 17.5557 17.4734 17.5557H54.3041C55.0166 17.5557 55.6332 17.8376 56.1539 18.4014C56.6746 18.9653 56.9349 19.6587 56.9349 20.4816V23.2704L35.8888 35.1112ZM34.5734 38.0371H37.2042L56.9349 26.6535V49.7408C56.9349 50.5333 56.6746 51.2191 56.1539 51.7981C55.6332 52.3772 55.0166 52.6668 54.3041 52.6668H17.4734C16.7609 52.6668 16.1444 52.3772 15.6237 51.7981C15.103 51.2191 14.8427 50.5333 14.8427 49.7408V26.6535L34.5734 38.0371Z" fill="white"/>
</svg>
