<svg width="71" height="71" viewBox="0 0 71 71" fill="none" xmlns="http://www.w3.org/2000/svg">
<rect x="14.7389" y="14.0444" width="45.6444" height="42.1333" fill="white"/>
<path d="M46.339 35.111C46.339 37.9046 45.2292 40.5838 43.2538 42.5592C41.2785 44.5345 38.5993 45.6443 35.8056 45.6443C33.012 45.6443 30.3328 44.5345 28.3575 42.5592C26.3821 40.5838 25.2723 37.9046 25.2723 35.111C25.2723 34.5106 25.3355 33.9242 25.4444 33.3554H21.7612V47.3893C21.7612 48.3654 22.5512 49.1554 23.5273 49.1554H48.0875C48.5553 49.1545 49.0036 48.968 49.3341 48.6369C49.6645 48.3058 49.8501 47.8571 49.8501 47.3893V33.3554H46.1669C46.2758 33.9242 46.339 34.5106 46.339 35.111ZM35.8056 42.1332C36.728 42.133 37.6414 41.951 38.4935 41.5978C39.3456 41.2446 40.1198 40.7271 40.7718 40.0747C41.4239 39.4223 41.9411 38.6478 42.2939 37.7955C42.6466 36.9433 42.8281 36.0299 42.8279 35.1075C42.8276 34.1851 42.6457 33.2717 42.2925 32.4196C41.9393 31.5675 41.4217 30.7933 40.7694 30.1413C40.117 29.4892 39.3425 28.972 38.4902 28.6192C37.638 28.2665 36.7245 28.085 35.8021 28.0852C33.9393 28.0857 32.1529 28.8262 30.8359 30.1437C29.519 31.4613 28.7794 33.2481 28.7799 35.111C28.7804 36.9738 29.5208 38.7602 30.8384 40.0772C32.156 41.3941 33.9428 42.1337 35.8056 42.1332ZM44.2323 27.7376H48.4421C48.7218 27.7376 48.9901 27.6268 49.1882 27.4293C49.3863 27.2319 49.4981 26.964 49.499 26.6843V22.4745C49.499 22.1942 49.3876 21.9254 49.1894 21.7272C48.9912 21.529 48.7224 21.4176 48.4421 21.4176H44.2323C43.952 21.4176 43.6832 21.529 43.485 21.7272C43.2868 21.9254 43.1755 22.1942 43.1755 22.4745V26.6843C43.179 27.2636 43.653 27.7376 44.2323 27.7376ZM35.8056 1.4043C26.8661 1.4043 18.2927 4.95552 11.9714 11.2768C5.6502 17.598 2.09898 26.1714 2.09898 35.111C2.09898 44.0505 5.6502 52.624 11.9714 58.9452C18.2927 65.2664 26.8661 68.8176 35.8056 68.8176C40.2321 68.8176 44.6152 67.9458 48.7046 66.2519C52.7941 64.5579 56.5099 62.0751 59.6399 58.9452C62.7698 55.8152 65.2526 52.0994 66.9465 48.01C68.6405 43.9205 69.5123 39.5374 69.5123 35.111C69.5123 30.6845 68.6405 26.3015 66.9465 22.212C65.2526 18.1225 62.7698 14.4067 59.6399 11.2768C56.5099 8.1468 52.7941 5.66398 48.7046 3.97006C44.6152 2.27615 40.2321 1.4043 35.8056 1.4043ZM53.3612 48.7657C53.3612 50.911 51.6056 52.6665 49.4604 52.6665H22.1509C20.0056 52.6665 18.2501 50.911 18.2501 48.7657V21.4563C18.2501 19.311 20.0056 17.5554 22.1509 17.5554H49.4604C51.6056 17.5554 53.3612 19.311 53.3612 21.4563V48.7657Z" fill="#002433"/>
</svg>
