<svg width="71" height="71" viewBox="0 0 71 71" fill="none" xmlns="http://www.w3.org/2000/svg">
<rect x="10.5333" y="14.0444" width="45.6444" height="42.1333" fill="white"/>
<path d="M35.1112 1.4043C16.4953 1.4043 1.40453 16.4951 1.40453 35.111C1.40453 53.7269 16.4953 68.8176 35.1112 68.8176C53.7271 68.8176 68.8179 53.7269 68.8179 35.111C68.8179 16.4951 53.7271 1.4043 35.1112 1.4043ZM26.8601 49.0817H20.0345V27.1162H26.8601V49.0817ZM23.4052 24.4196C21.2493 24.4196 19.8554 22.8923 19.8554 21.0033C19.8554 19.0757 21.2915 17.594 23.4929 17.594C25.6944 17.594 27.0427 19.0757 27.0848 21.0033C27.0848 22.8923 25.6944 24.4196 23.4052 24.4196ZM51.789 49.0817H44.9634V36.9087C44.9634 34.0752 43.9732 32.1511 41.5049 32.1511C39.6195 32.1511 38.4994 33.4537 38.0044 34.7072C37.8218 35.1531 37.7761 35.7851 37.7761 36.4136V49.0782H30.947V34.1208C30.947 31.3787 30.8592 29.0859 30.768 27.1127H36.6982L37.0107 30.1638H37.1476C38.0465 28.7313 40.248 26.6176 43.9311 26.6176C48.4218 26.6176 51.789 29.6266 51.789 36.0941V49.0817Z" fill="#002433"/>
</svg>
