<svg width="306" height="430" viewBox="0 0 306 430" fill="none" xmlns="http://www.w3.org/2000/svg">
<g filter="url(#filter0_d_110_399)">
<path d="M189.395 333.734C188.997 336.431 187.495 346.542 186.792 350.154C184.657 361.532 174.687 363.737 163.333 364.229C161.574 367.912 157.047 369.249 153.012 369.625C149.024 369.414 144.379 367.818 142.714 364.229C130.562 363.737 121.977 361.883 119.255 350.154C118.964 348.683 119.118 347.157 119.699 345.774C120.28 344.39 121.261 343.212 122.516 342.39C128.357 338.472 137.858 338.238 153.012 338.238C162.888 337.745 176.165 339.739 185.408 336.15L189.395 333.734ZM191.741 304.927C179.238 308.845 166.078 309.783 152.941 310.158C139.828 309.783 126.668 308.845 114.142 304.927C114.939 315.014 115.643 325.101 116.722 335.188C117.926 334.284 119.214 333.499 120.569 332.842C129.952 329.206 142.901 331.271 152.941 330.731C181.701 330.684 190.123 329.769 191.788 304.927H191.741Z" fill="white"/>
<path d="M194.322 271.781C174.007 266.432 168.541 242.739 168.119 221.603C167.79 205.863 173.538 208.537 184.54 209.663C194.791 210.719 198.427 208.655 197.981 199.224C197.919 197.478 197.738 195.738 197.442 194.017C197.912 194.021 198.376 193.91 198.794 193.694C199.211 193.478 199.57 193.164 199.838 192.777C200.106 192.391 200.276 191.945 200.333 191.479C200.389 191.012 200.331 190.538 200.163 190.099C200.045 189.846 199.895 189.61 199.717 189.395C200.072 189.303 200.418 189.177 200.749 189.02C202.532 187.988 201.148 185.9 200.374 184.68C202.379 183.549 204.493 182.621 206.684 181.912C208.701 181.279 208.303 178.91 207.435 177.221C202.063 167.837 198.685 160.8 198.685 146.279C198.685 123.853 178.206 105.697 152.965 105.697C139.9 105.697 127.37 110.887 118.131 120.125C108.893 129.364 103.703 141.894 103.703 154.959C103.703 167.134 108.746 177.784 115.432 186.885C126.645 202.086 129.507 227.233 111.702 271.757C100.7 223.621 60 207.435 60 154.982C60 102.53 101.638 60 152.988 60C204.362 60 246 102.53 246 154.982C246 207.435 205.277 223.621 194.392 271.781" fill="white"/>
</g>
<defs>
<filter id="filter0_d_110_399" x="0" y="0" width="306" height="429.625" filterUnits="userSpaceOnUse" color-interpolation-filters="sRGB">
<feFlood flood-opacity="0" result="BackgroundImageFix"/>
<feColorMatrix in="SourceAlpha" type="matrix" values="0 0 0 0 0 0 0 0 0 0 0 0 0 0 0 0 0 0 127 0" result="hardAlpha"/>
<feOffset/>
<feGaussianBlur stdDeviation="30"/>
<feColorMatrix type="matrix" values="0 0 0 0 1 0 0 0 0 1 0 0 0 0 1 0 0 0 0.8 0"/>
<feBlend mode="normal" in2="BackgroundImageFix" result="effect1_dropShadow_110_399"/>
<feBlend mode="normal" in="SourceGraphic" in2="effect1_dropShadow_110_399" result="shape"/>
</filter>
</defs>
</svg>
