<svg width="52" height="74" viewBox="0 0 52 74" fill="none" xmlns="http://www.w3.org/2000/svg">
<g filter="url(#filter0_bf_199_175)">
<path d="M45.0482 37C33.5483 54.5 42.5483 70 25.5482 70C7.32281 70 14.0483 50 6.548 37C-0.451901 19.5 7.32281 4 25.5482 4C43.7736 4 52.0482 20.5 45.0482 37Z" fill="white" fill-opacity="0.01"/>
</g>
<path d="M32.3199 60.0451C32.2448 60.5679 31.9623 62.5271 31.8299 63.2272C31.4282 65.4319 29.5522 65.8592 27.4157 65.9546C27.0846 66.6683 26.2327 66.9274 25.4735 67.0002C24.7231 66.9593 23.8491 66.6502 23.5356 65.9546C21.2491 65.8592 19.6335 65.5001 19.1215 63.2272C19.0665 62.942 19.0956 62.6463 19.2049 62.3783C19.3142 62.1102 19.4988 61.8818 19.735 61.7225C20.8342 60.9634 22.6219 60.9179 25.4735 60.9179C27.3318 60.8224 29.8303 61.2088 31.5694 60.5133L32.3199 60.0451ZM32.7613 54.4629C30.4085 55.222 27.9322 55.4039 25.4602 55.4766C22.9927 55.4039 20.5163 55.222 18.1592 54.4629C18.3093 56.4176 18.4417 58.3723 18.6447 60.327C18.8713 60.1519 19.1138 59.9996 19.3687 59.8724C21.1343 59.1678 23.571 59.5678 25.4602 59.4633C30.872 59.4542 32.4567 59.2769 32.7701 54.4629H32.7613Z" fill="white"/>
<path d="M33.2477 48.0394C29.4251 47.0029 28.3966 42.4117 28.3171 38.3159C28.2553 35.2657 29.3368 35.7839 31.407 36.0021C33.336 36.2067 34.0202 35.8067 33.9363 33.9793C33.9246 33.6409 33.8907 33.3037 33.8348 32.9701C33.9233 32.9709 34.0106 32.9495 34.0892 32.9076C34.1678 32.8658 34.2353 32.8048 34.2858 32.73C34.3363 32.6551 34.3682 32.5687 34.3789 32.4783C34.3895 32.3878 34.3785 32.296 34.3469 32.2109C34.3248 32.1619 34.2966 32.1161 34.263 32.0746C34.3298 32.0566 34.3948 32.0323 34.4572 32.0018C34.7927 31.8018 34.5323 31.3972 34.3866 31.1609C34.764 30.9416 35.1618 30.7619 35.574 30.6245C35.9536 30.5017 35.8786 30.0426 35.7153 29.7153C34.7044 27.897 34.0688 26.5333 34.0688 23.7194C34.0688 19.3736 30.2152 15.8552 25.4655 15.8552C23.0071 15.8552 20.6492 16.8609 18.9108 18.6512C17.1724 20.4415 16.1958 22.8696 16.1958 25.4014C16.1958 27.7606 17.1448 29.8244 18.4029 31.5882C20.5128 34.5338 21.0514 39.4069 17.701 48.0348C15.6308 38.7069 7.97217 35.5703 7.97217 25.4059C7.97217 15.2415 15.8073 7 25.47 7C35.137 7 42.9722 15.2415 42.9722 25.4059C42.9722 35.5703 35.3092 38.7069 33.261 48.0394" fill="white"/>
<defs>
<filter id="filter0_bf_199_175" x="-3" y="-3" width="57.5225" height="80" filterUnits="userSpaceOnUse" color-interpolation-filters="sRGB">
<feFlood flood-opacity="0" result="BackgroundImageFix"/>
<feGaussianBlur in="BackgroundImage" stdDeviation="3.5"/>
<feComposite in2="SourceAlpha" operator="in" result="effect1_backgroundBlur_199_175"/>
<feBlend mode="normal" in="SourceGraphic" in2="effect1_backgroundBlur_199_175" result="shape"/>
<feGaussianBlur stdDeviation="2" result="effect2_foregroundBlur_199_175"/>
</filter>
</defs>
</svg>
