<svg width="236" height="485" viewBox="0 0 236 485" fill="none" xmlns="http://www.w3.org/2000/svg">
<g filter="url(#filter0_d_130_97)">
<rect x="36" y="36" width="155.106" height="405" rx="8.58283" fill="#002433"/>
</g>
<g filter="url(#filter1_i_130_97)">
<path d="M53.3652 381.565C52.2439 378.927 54.1799 376 57.0465 376H169.03C171.876 376 173.812 378.889 172.729 381.522L160.389 411.522C159.772 413.021 158.311 414 156.69 414H69.7975C68.193 414 66.7438 413.041 66.1162 411.565L53.3652 381.565Z" fill="#0A1B23"/>
</g>
<g filter="url(#filter2_ii_130_97)">
<path d="M64.5816 235.687C64.7452 233.605 66.4817 232 68.5693 232H158.299C160.396 232 162.137 233.619 162.289 235.71L172.688 378.71C172.857 381.027 171.022 383 168.699 383H57.3268C54.9941 383 53.1563 381.012 53.3391 378.686L64.5816 235.687Z" fill="#FCFCFC"/>
<path d="M64.5816 235.687C64.7452 233.605 66.4817 232 68.5693 232H158.299C160.396 232 162.137 233.619 162.289 235.71L172.688 378.71C172.857 381.027 171.022 383 168.699 383H57.3268C54.9941 383 53.1563 381.012 53.3391 378.686L64.5816 235.687Z" fill="url(#paint0_linear_130_97)" fill-opacity="0.2"/>
</g>
<g filter="url(#filter3_i_130_97)">
<path d="M65 70C65 67.7909 66.7909 66 69 66H158C160.209 66 162 67.7909 162 70V235H65V70Z" fill="url(#paint1_linear_130_97)"/>
</g>
<defs>
<filter id="filter0_d_130_97" x="0" y="0" width="235.106" height="485" filterUnits="userSpaceOnUse" color-interpolation-filters="sRGB">
<feFlood flood-opacity="0" result="BackgroundImageFix"/>
<feColorMatrix in="SourceAlpha" type="matrix" values="0 0 0 0 0 0 0 0 0 0 0 0 0 0 0 0 0 0 127 0" result="hardAlpha"/>
<feOffset dx="4" dy="4"/>
<feGaussianBlur stdDeviation="20"/>
<feComposite in2="hardAlpha" operator="out"/>
<feColorMatrix type="matrix" values="0 0 0 0 0 0 0 0 0 0 0 0 0 0 0 0 0 0 0.35 0"/>
<feBlend mode="normal" in2="BackgroundImageFix" result="effect1_dropShadow_130_97"/>
<feBlend mode="normal" in="SourceGraphic" in2="effect1_dropShadow_130_97" result="shape"/>
</filter>
<filter id="filter1_i_130_97" x="53.042" y="376" width="119.992" height="38" filterUnits="userSpaceOnUse" color-interpolation-filters="sRGB">
<feFlood flood-opacity="0" result="BackgroundImageFix"/>
<feBlend mode="normal" in="SourceGraphic" in2="BackgroundImageFix" result="shape"/>
<feColorMatrix in="SourceAlpha" type="matrix" values="0 0 0 0 0 0 0 0 0 0 0 0 0 0 0 0 0 0 127 0" result="hardAlpha"/>
<feOffset/>
<feGaussianBlur stdDeviation="5"/>
<feComposite in2="hardAlpha" operator="arithmetic" k2="-1" k3="1"/>
<feColorMatrix type="matrix" values="0 0 0 0 0 0 0 0 0 0 0 0 0 0 0 0 0 0 1 0"/>
<feBlend mode="normal" in2="shape" result="effect1_innerShadow_130_97"/>
</filter>
<filter id="filter2_ii_130_97" x="53.3267" y="228" width="119.372" height="155" filterUnits="userSpaceOnUse" color-interpolation-filters="sRGB">
<feFlood flood-opacity="0" result="BackgroundImageFix"/>
<feBlend mode="normal" in="SourceGraphic" in2="BackgroundImageFix" result="shape"/>
<feColorMatrix in="SourceAlpha" type="matrix" values="0 0 0 0 0 0 0 0 0 0 0 0 0 0 0 0 0 0 127 0" result="hardAlpha"/>
<feOffset/>
<feGaussianBlur stdDeviation="7.5"/>
<feComposite in2="hardAlpha" operator="arithmetic" k2="-1" k3="1"/>
<feColorMatrix type="matrix" values="0 0 0 0 0 0 0 0 0 0 0 0 0 0 0 0 0 0 0.25 0"/>
<feBlend mode="normal" in2="shape" result="effect1_innerShadow_130_97"/>
<feColorMatrix in="SourceAlpha" type="matrix" values="0 0 0 0 0 0 0 0 0 0 0 0 0 0 0 0 0 0 127 0" result="hardAlpha"/>
<feOffset dy="-4"/>
<feGaussianBlur stdDeviation="2"/>
<feComposite in2="hardAlpha" operator="arithmetic" k2="-1" k3="1"/>
<feColorMatrix type="matrix" values="0 0 0 0 0 0 0 0 0 0 0 0 0 0 0 0 0 0 0.75 0"/>
<feBlend mode="normal" in2="effect1_innerShadow_130_97" result="effect2_innerShadow_130_97"/>
</filter>
<filter id="filter3_i_130_97" x="65" y="66" width="97" height="169" filterUnits="userSpaceOnUse" color-interpolation-filters="sRGB">
<feFlood flood-opacity="0" result="BackgroundImageFix"/>
<feBlend mode="normal" in="SourceGraphic" in2="BackgroundImageFix" result="shape"/>
<feColorMatrix in="SourceAlpha" type="matrix" values="0 0 0 0 0 0 0 0 0 0 0 0 0 0 0 0 0 0 127 0" result="hardAlpha"/>
<feOffset/>
<feGaussianBlur stdDeviation="5"/>
<feComposite in2="hardAlpha" operator="arithmetic" k2="-1" k3="1"/>
<feColorMatrix type="matrix" values="0 0 0 0 0 0 0 0 0 0 0 0 0 0 0 0 0 0 0.5 0"/>
<feBlend mode="normal" in2="shape" result="effect1_innerShadow_130_97"/>
</filter>
<linearGradient id="paint0_linear_130_97" x1="113" y1="214" x2="113" y2="383" gradientUnits="userSpaceOnUse">
<stop/>
<stop offset="0.197917" stop-opacity="0"/>
</linearGradient>
<linearGradient id="paint1_linear_130_97" x1="113.5" y1="66" x2="113.5" y2="235" gradientUnits="userSpaceOnUse">
<stop stop-color="#6B6B6B"/>
<stop offset="1" stop-color="white"/>
</linearGradient>
</defs>
</svg>
