<svg width="71" height="71" viewBox="0 0 71 71" fill="none" xmlns="http://www.w3.org/2000/svg">
<rect x="14.1277" y="14.0444" width="45.6444" height="42.1333" fill="white"/>
<path d="M35.1944 1.4043C16.5785 1.4043 1.48773 16.4951 1.48773 35.111C1.48773 53.7269 16.5785 68.8176 35.1944 68.8176C53.8103 68.8176 68.9011 53.7269 68.9011 35.111C68.9011 16.4951 53.8103 1.4043 35.1944 1.4043ZM48.9053 29.0157C48.9193 29.3036 48.9228 29.5915 48.9228 29.8724C48.9228 38.6502 42.2482 48.7657 30.0366 48.7657C26.4282 48.7717 22.8949 47.7353 19.8614 45.7812C20.3775 45.8444 20.9077 45.869 21.4449 45.869C24.5557 45.869 27.4173 44.8122 29.689 43.0285C28.3046 43.0013 26.9632 42.5429 25.8517 41.7172C24.7402 40.8914 23.9141 39.7395 23.4884 38.4219C24.4825 38.611 25.5067 38.5714 26.4833 38.3061C24.9807 38.0022 23.6295 37.1881 22.6587 36.0016C21.6879 34.8152 21.1574 33.3295 21.157 31.7965V31.7157C22.0523 32.2108 23.0776 32.5127 24.166 32.5479C22.7573 31.6101 21.7601 30.1697 21.3783 28.5211C20.9965 26.8725 21.259 25.1403 22.112 23.6788C23.7796 25.7293 25.8593 27.4067 28.2163 28.6025C30.5733 29.7982 33.1552 30.4856 35.7948 30.6203C35.4592 29.1958 35.6037 27.7004 36.2056 26.3666C36.8076 25.0327 37.8334 23.9351 39.1236 23.2443C40.4137 22.5536 41.896 22.3085 43.3398 22.5471C44.7836 22.7856 46.1082 23.4945 47.1076 24.5636C48.5934 24.2696 50.0182 23.7246 51.3209 22.952C50.8257 24.4903 49.7889 25.7966 48.4032 26.6281C49.7193 26.4696 51.0045 26.1158 52.2163 25.5783C51.3262 26.9121 50.2049 28.0762 48.9053 29.0157Z" fill="#002433"/>
</svg>
